<?xml version="1.0" encoding="UTF-8"?><svg id="a" xmlns="http://www.w3.org/2000/svg" width="10in" height="2.27in" viewBox="0 0 720 163.6"><rect x="29.24" y="12.81" width="129.1" height="147.58" fill="#ed3741"/><path d="m0,145.72s17.65,1.17,47.85,6.47c12.94,2.27,39.42,9.42,44.47,9.31-9.66-27.78-22.15-103.17-17.27-133.01C75.05,28.49,43.99,11.05,19.05,0,23.71,17.47,46.64,80.98,0,145.72Z" fill="#fff"/><path d="m72.08,21.53c7.46-.05,80.46,24.54,99.85,142.07-7.02-6.14-47.67-25.61-77.32-5.78,21.19-50.08-.82-113.92-22.53-136.3Z" fill="#fff"/><path d="m100.31,79.09c-5.19-23.32-15.43-45.18-26.85-57.41-.58-.1-1.05-.15-1.38-.15,21.71,22.37,43.72,86.22,22.53,136.3.44-.29.88-.58,1.32-.85,9.06-22.24,10.62-49.83,4.38-77.88Z" fill="#221f1f"/><path d="m75.05,28.49c-4.88,29.84,7.61,105.23,17.27,133.01,8.39-25.85-11.62-107.34-17.27-133.01Z" fill="#b0b2b3"/><path d="m0,145.72s.36.02,1.05.08C44.36,85.26,27.47,26.21,21.1,3.94c-.37-1.29-.7-2.44-.98-3.47-.36-.16-.71-.32-1.06-.47C23.71,17.47,46.64,80.98,0,145.72Z" fill="#221f1f"/><path d="m702.68,118.81v-43.62q-.11,0-.22-.11c-.54.87-1.08,1.84-1.63,2.71-6.39,10.63-12.68,21.49-19.07,32.12-.33.76-1.08,1.19-1.95,1.09-1.73-.11-3.58-.11-5.31,0-.76.11-1.41-.33-1.73-.98-6.61-10.96-13.22-21.92-19.94-32.88-.22-.43-.54-.76-.98-.98v42.65h-15.93V45.02h12.57c.87,0,1.63.43,2.06,1.19l26.12,43.41c.22.33.43.65.76,1.19.33-.33.54-.65.65-1.09,8.45-14.32,17.01-28.76,25.47-43.08.54-1.09,1.75-1.63,2.93-1.63h12.03v73.79h-15.82Z" fill="#231f20"/><path d="m581.64,43.82c11.49.11,21.24,3.04,29.15,10.31,8.99,8.25,12.68,18.66,11.92,30.82-.43,9.87-4.98,19.21-12.57,25.61-7.37,6.29-16.04,9.22-25.68,9.66-9.64.43-18.42-1.63-26.33-7.05-11.92-8.46-16.91-20.18-15.82-34.72.54-8.79,4.33-17.04,10.73-23.01,6.29-6.19,14.52-10.09,23.41-10.96,1.73-.43,3.47-.65,5.2-.65Zm-22.32,38.41c.11,1.19.22,2.71.43,4.12,1.52,8.68,6.18,15.08,14.74,17.8,8.78,2.82,17.01,1.52,24.06-4.88,5.09-4.77,7.04-10.96,6.94-17.91-.43-19.32-18.86-27.35-33.16-20.83-8.99,4.23-12.68,11.83-13,21.7h0Z" fill="#231f20"/><path d="m324.8,88.75h-33.38v30.06h-17.01V45.12h16.91v28.97h33.49v-28.97h17.01v73.68h-17.01s0-30.06,0-30.06Z" fill="#231f20"/><path d="m411.17,98.51v20.29h-17.01V45.02h32.29c6.29-.22,12.46,1.19,17.99,3.91,8.67,4.45,13.11,11.72,13.55,21.59.33,6.62-1.19,12.7-5.53,17.8-4.01,4.77-9.54,7.92-15.61,8.9-3.58.76-7.15,1.09-10.73,1.19-4.44.22-8.89,0-13.22,0-.65.11-1.19.11-1.73.11Zm0-13.89c6.5-.33,13,.65,19.4-.65,6.07-1.19,9.32-4.77,9.86-10.74.54-6.19-1.95-11.29-8.56-13.24-1.84-.54-3.79-.87-5.74-.87-4.66-.11-9.32,0-13.87,0-.33,0-.65,0-.98.11-.11,8.36-.11,16.82-.11,25.39Z" fill="#231f20"/><path d="m254.25,63.03c-3.36-1.3-6.5-2.82-9.86-3.91-5.64-1.84-11.6-2.28-17.34-.98-1.95.33-3.79,1.3-5.2,2.71-2.6,2.28-2.82,6.19-.54,8.79.43.54.98.98,1.63,1.3,2.93,1.84,6.18,2.5,9.54,3.36,4.98,1.3,9.97,2.5,14.95,4.02,2.49.87,4.88,1.95,7.15,3.36,6.5,4.12,8.78,10.31,7.91,17.69-1.08,9.12-6.72,14.65-14.85,17.8-6.29,2.5-12.79,2.93-19.4,2.6-7.8-.33-15.39-2.17-22.43-5.64-1.52-.87-3.03-1.74-4.44-2.71,1.95-4.45,3.9-8.57,5.85-12.91.33.11.54.33.87.54,8.45,5.64,18.75,8.03,28.83,6.62,1.95-.22,3.79-.87,5.42-1.74,4.77-2.6,4.88-8.36.11-10.85-3.03-1.41-6.18-2.6-9.43-3.36-5.96-1.63-12.14-2.6-17.88-5.32-5.74-2.71-10.19-6.62-11.49-13.13-2.06-10.09,2.6-19.32,12.03-23.98,6.29-3.04,13.11-3.8,19.94-3.69,6.94,0,13.76,1.52,20.05,4.34,1.08.43,2.06,1.09,3.14,1.63.33.22.65.43.98.65-2.06,4.45-3.79,8.79-5.53,12.8Z" fill="#231f20"/><path d="m537.2,56.63c-3.9,3.69-7.59,6.94-11.16,10.31-10.19-12.26-28.5-10.2-36.41-1.19-7.91,9.01-7.59,24.74.87,33.21,8.13,8.03,25.36,9.98,35.54-2.17,1.84,1.63,3.58,3.36,5.42,4.99,1.84,1.63,3.58,3.36,5.53,5.1-2.28,2.82-4.98,5.32-8.02,7.16-7.8,4.99-16.58,6.51-25.68,5.86-10.4-.65-19.51-4.34-26.77-12.05-6.72-7.05-10.29-16.6-9.97-26.37.22-14.11,6.07-25.5,18.53-32.34,14.85-8.03,30.02-7.81,44.65,1.09,2.71,1.84,4.88,4.23,7.48,6.4Z" fill="#231f20"/><path d="m376.39,118.81h-16.91V45.23h16.91v73.57Z" fill="#231f20"/></svg>